<svg xmlns="http://www.w3.org/2000/svg" width="64" height="64" fill="none"><g clip-path="url(#a)"><path fill="#fff" d="M18.667 24v-5.333H56V24H18.667Zm0 10.667v-5.334H56v5.334H18.667Zm0 10.666V40H56v5.333H18.667Zm-8-21.333c-.756 0-1.39-.256-1.9-.767-.511-.51-.767-1.144-.767-1.9 0-.755.256-1.388.767-1.9.51-.51 1.144-.766 1.9-.766.755 0 1.389.255 1.9.766.51.512.766 1.145.766 1.9 0 .756-.255 1.39-.766 1.9-.511.511-1.145.767-1.9.767Zm0 10.667c-.756 0-1.39-.256-1.9-.767C8.256 33.39 8 32.756 8 32s.256-1.389.767-1.9c.51-.511 1.144-.767 1.9-.767.755 0 1.389.256 1.9.767.51.511.766 1.144.766 1.9s-.255 1.389-.766 1.9c-.511.511-1.145.767-1.9.767Zm0 10.666c-.756 0-1.39-.255-1.9-.766-.511-.511-.767-1.145-.767-1.9 0-.756.256-1.39.767-1.9.51-.511 1.144-.767 1.9-.767.755 0 1.389.256 1.9.767.51.51.766 1.144.766 1.9 0 .755-.255 1.389-.766 1.9-.511.51-1.145.766-1.9.766Z"/></g><defs><clipPath id="a"><path fill="#fff" d="M0 0h64v64H0z"/></clipPath></defs></svg>