<svg xmlns="http://www.w3.org/2000/svg" width="64" height="64" fill="none"><g clip-path="url(#a)"><path fill="#fff" d="M13.333 50.667h3.8L43.2 24.6l-3.8-3.8-26.067 26.067v3.8ZM8 56V44.667L43.2 9.533A5.99 5.99 0 0 1 44.967 8.4 5.265 5.265 0 0 1 47 8c.711 0 1.4.133 2.067.4A4.684 4.684 0 0 1 50.8 9.6l3.667 3.733a4.357 4.357 0 0 1 1.166 1.734c.245.666.367 1.333.367 2 0 .71-.122 1.389-.367 2.033a4.997 4.997 0 0 1-1.166 1.767L19.333 56H8Zm33.267-33.267L39.4 20.8l3.8 3.8-1.933-1.867Z"/></g><defs><clipPath id="a"><path fill="#fff" d="M0 0h64v64H0z"/></clipPath></defs></svg>