<svg xmlns="http://www.w3.org/2000/svg" width="64" height="64" fill="none"><g clip-path="url(#a)"><path fill="#fff" d="M13.333 56c-1.466 0-2.733-.511-3.8-1.533C8.511 53.4 8 52.133 8 50.667V13.333c0-1.466.511-2.71 1.533-3.733C10.6 8.533 11.867 8 13.333 8h37.334c1.466 0 2.71.533 3.733 1.6 1.067 1.022 1.6 2.267 1.6 3.733v37.334c0 1.466-.533 2.733-1.6 3.8C53.378 55.489 52.133 56 50.667 56H13.333Zm0-5.333h37.334V13.333H13.333v37.334ZM16 45.333h32L38 32l-8 10.667-6-8-8 10.666Zm-2.667 5.334V13.333v37.334Z"/></g><defs><clipPath id="a"><path fill="#fff" d="M0 0h64v64H0z"/></clipPath></defs></svg>