<svg width="32" height="32" viewBox="0 0 32 32" fill="none" xmlns="http://www.w3.org/2000/svg">
<circle cx="16" cy="16" r="16" fill="white"/>
<path d="M24.9825 26.1053V23.8597C24.9825 22.6685 24.5093 21.5262 23.667 20.6839C22.8248 19.8416 21.6824 19.3685 20.4913 19.3685H11.5088C10.3177 19.3685 9.1753 19.8416 8.33303 20.6839C7.49076 21.5262 7.01758 22.6685 7.01758 23.8597V26.1053M20.4913 10.386C20.4913 12.8664 18.4805 14.8772 16 14.8772C13.5196 14.8772 11.5088 12.8664 11.5088 10.386C11.5088 7.90557 13.5196 5.89478 16 5.89478C18.4805 5.89478 20.4913 7.90557 20.4913 10.386Z" stroke="#1E1E1E" stroke-width="4" stroke-linecap="round" stroke-linejoin="round"/>
</svg>
